<svg xmlns="http://www.w3.org/2000/svg" width="139" height="50"><path d="M21.19.18L1.04 23.68a2.2 2.2 0 0 0 0 2.94l9.07 10.1 2.25-3.99L10.9 30H20v-2h-9.94l-1.12-2H20v-2H8.55l1.32-2H21v-2h-9.91L22.05.81a.54.54 0 0 0-.86-.63zM16 40.2l-1.85 2.02 4.56 5.08a.56.56 0 0 0 .92-.63z" fill="#d94b61"/><path d="M10.4 11.03l1.84-2.02-4.62-5.14a.54.54 0 0 0-.86.64zM25.34 23.67l-9.12-10.16-2.25 3.99 4.28 7.62-14.1 24.07a.54.54 0 0 0 .87.63l20.32-23.26a2.26 2.26 0 0 0 0-2.89zM53.86 13c0 3.34-5.14 3.34-5.14 0s5.14-3.36 5.14 0zM49 18h4v18h-4zM64.94 17.61a8.74 8.74 0 0 0-9.06 9.12A8.76 8.76 0 0 0 65 35.85a8.76 8.76 0 0 0 9.12-9.12 8.84 8.84 0 0 0-9.18-9.12zm0 14.26c-3.11 0-4.73-2.48-4.73-5.14s1.62-5.2 4.73-5.2a4.93 4.93 0 0 1 4.74 5.2c0 2.66-1.56 5.14-4.74 5.14zM80 13.54V36h-4V10.48zM38.05 17.5c-1.85 0-5.26.98-5.84 2.83v-7.34l-4.04-3.06v25.29h3.87l.29-2.31a6.47 6.47 0 0 0 5.66 2.89c5.13 0 9-3.4 9-9.12 0-6.07-3.87-9.18-8.95-9.18zm-.35 14.31a4.96 4.96 0 0 1-5.08-5.14 5.03 5.03 0 0 1 5.08-5.13 4.84 4.84 0 0 1 4.96 5.13 4.9 4.9 0 0 1-4.96 5.14zM91.27 17.61a8.74 8.74 0 0 0-9.06 9.12 9.12 9.12 0 1 0 18.24 0 8.84 8.84 0 0 0-9.18-9.12zm.06 14.26c-3.12 0-4.74-2.48-4.74-5.14s1.62-5.2 4.74-5.2a4.93 4.93 0 0 1 4.73 5.2c0 2.66-1.56 5.14-4.73 5.14zM139 18h-5l-4.79 11.96L125 18h-5l6.83 17.16-2.2 5.02 3.7 2.54L139 18zM117.25 33.49c1.9-1.16 2.94-4.1 2.94-6.87a8.95 8.95 0 0 0-3.52-7.34l1.1-1.38-3.18-2.43s-1.5 1.9-1.73 2.26a8.99 8.99 0 0 0-1.79-.18 8.74 8.74 0 0 0-9.06 9.12c0 5.03 3.4 9.12 9.12 9.12a14.24 14.24 0 0 0 2.3-.23 3.13 3.13 0 0 1 1.97 3c0 2.43-1.96 3.52-4.44 3.52s-4.56-1.1-4.56-3.98h-4.33c0 5.2 3.8 8.03 8.89 8.03s8.77-2.95 8.77-7.8a6.42 6.42 0 0 0-2.25-4.85zm-6.18-1.62c-3.18 0-4.73-2.48-4.73-5.14s1.61-5.2 4.73-5.2a4.93 4.93 0 0 1 4.73 5.2c.06 2.66-1.56 5.14-4.73 5.14z" fill="#efefe1"/></svg>